<?xml version="1.0" standalone="no"?>
<!DOCTYPE svg PUBLIC "-//W3C//DTD SVG 20010904//EN"
 "http://www.w3.org/TR/2001/REC-SVG-20010904/DTD/svg10.dtd">
<svg version="1.0" xmlns="http://www.w3.org/2000/svg"
 width="512.000000pt" height="512.000000pt" viewBox="0 0 512.000000 512.000000"
 preserveAspectRatio="xMidYMid meet">

<g transform="translate(0.000000,512.000000) scale(0.100000,-0.100000)"
fill="#000000" stroke="none">
<path d="M1285 4429 c-687 -379 -1258 -699 -1267 -710 -16 -19 -18 -45 -18
-220 0 -195 0 -198 24 -226 24 -28 24 -28 170 -31 l146 -3 0 -1280 0 -1279
-139 0 c-77 0 -147 -3 -156 -6 -40 -16 -45 -50 -45 -339 l0 -277 29 -29 29
-29 2502 0 2502 0 29 29 29 29 0 287 0 286 -25 24 c-23 24 -28 25 -170 25
l-145 0 0 1279 0 1280 146 3 c146 3 146 3 170 31 24 28 24 31 24 228 0 194 -1
201 -22 222 -35 35 -2512 1397 -2539 1397 -13 -1 -586 -311 -1274 -691z m2334
-75 c575 -317 1053 -583 1061 -590 12 -12 -319 -14 -2120 -14 -1458 0 -2131 3
-2124 10 18 18 2108 1169 2123 1170 8 0 485 -259 1060 -576z m1331 -859 l0
-85 -2390 0 -2390 0 0 85 0 85 2390 0 2390 0 0 -85z m-4100 -1535 l0 -1280
-170 0 -170 0 0 1280 0 1280 170 0 170 0 0 -1280z m3248 3 l-3 -1278 -1535 0
-1535 0 -3 1278 -2 1277 1540 0 1540 0 -2 -1277z m512 -3 l0 -1280 -170 0
-170 0 0 1280 0 1280 170 0 170 0 0 -1280z m340 -1620 l0 -170 -2390 0 -2390
0 0 170 0 170 2390 0 2390 0 0 -170z"/>
<path d="M2372 3056 c-487 -93 -842 -464 -912 -951 -20 -142 -4 -325 40 -467
176 -570 781 -902 1351 -744 267 74 486 233 635 461 346 531 184 1231 -362
1562 -80 48 -187 92 -293 120 -120 31 -344 40 -459 19z m423 -185 c577 -153
868 -792 603 -1326 -234 -472 -807 -655 -1278 -409 -320 168 -523 529 -496
884 18 244 114 449 287 616 140 134 284 209 475 249 99 21 305 13 409 -14z"/>
<path d="M2477 2644 c-4 -4 -7 -28 -7 -54 0 -46 -1 -47 -39 -59 -56 -16 -144
-100 -178 -169 -24 -49 -28 -69 -28 -142 0 -76 4 -93 33 -152 54 -111 145
-173 276 -187 78 -9 119 -26 153 -63 66 -71 52 -192 -29 -250 -47 -33 -149
-33 -196 0 -35 25 -72 88 -72 122 0 19 -6 20 -86 20 l-87 0 6 -50 c13 -106 96
-215 200 -263 46 -22 47 -22 47 -69 l0 -48 90 0 90 0 0 48 c0 47 1 47 48 69
74 34 127 86 164 161 29 60 33 76 33 152 0 73 -4 93 -28 142 -35 71 -119 150
-184 172 -26 9 -75 19 -108 23 -105 10 -165 57 -181 141 -11 57 5 103 50 148
46 46 91 61 152 50 51 -10 112 -69 127 -123 l11 -43 84 0 85 0 -6 45 c-15 109
-101 222 -201 265 -43 18 -45 20 -48 67 l-3 48 -80 3 c-45 1 -84 0 -88 -4z"/>
</g>
</svg>
