<svg width="28" height="28" viewBox="0 0 28 28" fill="none" xmlns="http://www.w3.org/2000/svg">
<path d="M25.4545 0H2.54545C1.13909 0 0 1.13909 0 2.54545V25.4545C0 26.8609 1.13909 28 2.54545 28H15.2727V16.5455H11.4545V12.7273H15.2727V10.6769C15.2727 6.79509 17.164 5.09091 20.3904 5.09091C21.9355 5.09091 22.7525 5.20545 23.1395 5.25764V8.90909H20.9389C19.5695 8.90909 19.0909 9.632 19.0909 11.0956V12.7273H23.1051L22.5604 16.5455H19.0909V28H25.4545C26.8609 28 28 26.8609 28 25.4545V2.54545C28 1.13909 26.8596 0 25.4545 0Z" fill="white"/>
</svg>
