<svg width="89" height="95" viewBox="0 0 89 95" fill="none" xmlns="http://www.w3.org/2000/svg">
<path d="M45.0901 1.03711L0.519775 36.738L20.8413 41.9742L45.0901 1.03711Z" fill="#F3C08D"/>
<path d="M0 37.5815L2.27519 73.3151L20.3379 42.8232L0 37.5815Z" fill="#F5A856"/>
<path d="M78.1974 26.7659L48.5056 1.12378L75.2663 49.7546L78.1974 26.7659Z" fill="#A869A8"/>
<path d="M4.40344 75.3779L52.2913 94.7116L41.944 75.7916L4.40344 75.3779Z" fill="#D35458"/>
<path d="M46.8046 0L22.2593 41.4378L59.8734 23.7452L46.8046 0Z" fill="#EDA9A7"/>
<path d="M53.5268 95L87.2899 76.295L43.0299 75.8052L53.5268 95Z" fill="#6368AE"/>
<path d="M21.3993 42.8883L2.72693 74.4116L41.895 74.847L59.7046 24.8718L21.3993 42.8883Z" fill="#EF8183"/>
<path d="M88.2779 75.3587L75.3969 51.9509L43.6667 74.8661L88.2779 75.3587Z" fill="#9099CD"/>
<path d="M74.937 51.1157L60.6219 25.1089L43.1824 74.0499L74.937 51.1157Z" fill="#ADB4DC"/>
</svg>
