<svg width="240" height="173" viewBox="0 0 240 173" fill="none" xmlns="http://www.w3.org/2000/svg">
<path d="M19.9073 7.25928C29.2393 7.25928 36.4011 9.2167 41.3925 13.1316C46.3839 17.0464 48.8821 23.5255 48.887 32.5688C48.896 36.2814 48.2499 39.9664 46.9785 43.4545C45.7581 46.864 43.7189 49.9216 41.0402 52.3584C38.3536 54.8052 34.796 56.4078 30.3673 57.1663V56.146C34.4721 56.6966 38.4184 58.0912 41.9577 60.2419C45.4888 62.3641 48.4869 65.2667 50.7221 68.7274C53.0296 72.3551 54.2121 76.5845 54.1207 80.883C54.2104 84.737 53.3348 88.5524 51.5736 91.9816C49.9118 95.0994 47.5986 97.8231 44.7911 99.9679C41.8876 102.173 38.6032 103.825 35.1018 104.842C31.458 105.931 27.6742 106.48 23.8711 106.471H0.264526V7.25928H19.9073ZM23.4454 55.4634C31.4512 55.4634 37.2232 53.3175 40.7612 49.0259C44.2993 44.7342 46.0659 39.2926 46.061 32.7009C46.061 24.5042 43.7047 18.6613 38.9922 15.1722C34.2797 11.6831 27.967 9.94095 20.0541 9.94585H3.09056V55.456L23.4454 55.4634ZM23.5848 103.946C28.3013 103.996 32.9828 103.131 37.37 101.399C41.366 99.8523 44.86 97.2369 47.4703 93.8387C50.015 90.4915 51.2873 86.332 51.2873 81.3601C51.2873 75.9772 49.8755 71.573 47.0519 68.1475C44.2516 64.7289 40.5901 62.119 36.4451 60.5869C32.3399 59.0115 27.9819 58.1981 23.5848 58.1866H3.09056V103.983L23.5848 103.946Z" fill="#1D1D1B"/>
<path d="M106.839 54.311C103.433 54.4249 100.069 55.0918 96.8778 56.2856C93.5266 57.5163 90.3979 59.2839 87.6142 61.5192C84.8229 63.7398 82.5148 66.5075 80.8318 69.6523C79.1135 72.8946 78.2377 76.5166 78.2847 80.1857C78.1931 84.7866 79.5827 89.295 82.2484 93.046C84.9402 96.7682 88.5416 99.7377 92.7084 101.671C97.2185 103.779 102.147 104.841 107.125 104.776C111.314 104.808 115.477 104.099 119.42 102.684C123.068 101.39 126.465 99.4752 129.462 97.0245C132.059 94.9565 134.179 92.3527 135.679 89.3905L137.374 91.9376C135.016 96.3712 131.057 100.041 125.498 102.948C119.783 105.916 113.424 107.428 106.985 107.352C100.663 107.352 95.1259 106.129 90.3742 103.682C85.8276 101.423 81.9528 98.0114 79.1361 93.7874C76.7448 90.132 75.3441 85.9181 75.0713 81.5585C74.7985 77.1989 75.663 72.8433 77.58 68.9183C79.3063 65.5484 81.684 62.5545 84.5753 60.1099C87.5532 57.5637 90.951 55.5543 94.6169 54.1715C98.3508 52.7593 102.285 51.9492 106.273 51.7713L106.839 54.311ZM149.956 106.472H146.565L92.4222 36.6208C91.6881 35.2995 90.9541 33.9122 90.2201 32.4441C89.4878 30.9308 88.9194 29.3436 88.5244 27.7096C88.0804 25.8589 87.8659 23.9606 87.8858 22.0575C87.8 18.1113 88.8168 14.2193 90.822 10.8194C92.7672 7.60489 95.561 4.98884 98.8964 3.25886C102.339 1.45515 106.175 0.532169 110.061 0.57231C113.743 0.537193 117.396 1.23328 120.807 2.62025C123.753 3.80772 126.59 5.24943 129.285 6.92903L128.016 8.91094C125.257 7.24943 122.347 5.85341 119.325 4.74162C116.45 3.6787 113.412 3.12958 110.347 3.11939C104.783 3.11939 100.134 4.83214 96.4006 8.25764C92.6668 11.6831 90.8048 16.1363 90.8146 21.6171C90.7924 23.9179 91.1267 26.2084 91.8056 28.4069C92.5991 30.7719 93.6424 33.0456 94.9179 35.1894L149.956 106.472ZM149.67 51.7639H152.782L137.653 91.6293L135.679 89.2217L149.67 51.7639Z" fill="#1D1D1B"/>
<path d="M200.839 7.25928C203.978 7.30392 207.095 7.78062 210.103 8.67596C213.491 9.63931 216.693 11.168 219.572 13.1976C222.584 15.3184 225.075 18.0972 226.853 21.3234C228.733 24.6706 229.675 28.7934 229.68 33.6919C229.688 37.2237 229.115 40.7327 227.984 44.0785C226.837 47.5605 224.922 50.7403 222.381 53.3829C219.84 56.0256 216.738 58.0636 213.303 59.3464C209.437 60.9025 204.678 61.6806 199.026 61.6806H183.311V106.493H180.484V7.25928H200.839ZM198.578 58.9941C204.231 58.9941 208.879 58.2405 212.525 56.7332C215.811 55.4683 218.744 53.4316 221.077 50.7949C223.107 48.4233 224.624 45.6565 225.532 42.6691C226.409 39.8145 226.861 36.8468 226.876 33.8607C226.903 30.5223 226.202 27.218 224.82 24.1788C223.505 21.2781 221.606 18.6795 219.242 16.5448C216.838 14.3818 214.035 12.7088 210.991 11.6194C207.771 10.4708 204.375 9.89689 200.957 9.92383H183.311V58.9721L198.578 58.9941ZM211.586 59.1335L240 106.493H236.748L208.334 59.1335H211.586Z" fill="#1D1D1B"/>
<path d="M7.72939 139.165C9.598 139.124 11.4535 139.487 13.1686 140.23C14.686 140.882 15.967 141.983 16.8388 143.386C17.7496 144.981 18.197 146.799 18.1307 148.634C18.1338 149.881 17.9355 151.121 17.5434 152.305C17.1465 153.486 16.5035 154.569 15.657 155.483C14.7245 156.469 13.5868 157.238 12.3244 157.736C10.7875 158.34 9.14519 158.63 7.4945 158.588H2.31221V172.63H0V139.165H7.72939ZM7.4945 156.364C8.89345 156.411 10.2853 156.145 11.5684 155.586C12.563 155.14 13.4364 154.463 14.1155 153.611C14.7009 152.855 15.1459 152 15.4294 151.086C15.6858 150.294 15.8219 149.467 15.8331 148.634C15.846 147.632 15.6692 146.635 15.312 145.698C14.9759 144.835 14.4547 144.056 13.7852 143.415C13.0778 142.757 12.2435 142.25 11.3335 141.925C10.2586 141.548 9.12536 141.364 7.9863 141.382H2.33423V156.364H7.4945Z" fill="#1D1D1B"/>
<path d="M35.1527 139.165H37.4576V172.623H35.1527V139.165Z" fill="#1D1D1B"/>
<path d="M57.1522 139.165H77.7932V141.367H59.4424V154.653H75.9288V156.856H59.4644V170.376H78.4539V172.579H57.1668L57.1522 139.165Z" fill="#1D1D1B"/>
<path d="M96.3127 172.623V139.166H104.556C107.388 139.089 110.205 139.612 112.821 140.7C114.949 141.608 116.843 142.986 118.363 144.729C119.742 146.332 120.796 148.186 121.468 150.191C122.113 152.082 122.447 154.065 122.459 156.063C122.496 158.415 122.047 160.749 121.138 162.919C120.306 164.882 119.079 166.654 117.534 168.123C116.032 169.558 114.264 170.685 112.329 171.441C110.364 172.216 108.269 172.61 106.156 172.601L96.3127 172.623ZM98.6176 170.421H105.547C107.475 170.435 109.39 170.099 111.199 169.43C112.922 168.793 114.499 167.817 115.838 166.56C117.192 165.281 118.26 163.73 118.972 162.009C119.755 160.087 120.14 158.027 120.103 155.953C120.11 154.083 119.784 152.226 119.141 150.47C118.493 148.735 117.493 147.153 116.205 145.823C114.859 144.437 113.239 143.347 111.449 142.623C109.346 141.796 107.101 141.394 104.842 141.441H98.5736L98.6176 170.421Z" fill="#1D1D1B"/>
<path d="M147.666 139.165C148.935 139.168 150.198 139.351 151.416 139.708C152.641 140.06 153.791 140.635 154.808 141.404C155.838 142.189 156.683 143.192 157.281 144.34C157.937 145.672 158.259 147.143 158.221 148.627C158.228 149.873 158.038 151.111 157.656 152.297C157.278 153.476 156.652 154.559 155.821 155.476C154.902 156.466 153.773 157.239 152.517 157.736C150.926 158.346 149.23 158.636 147.526 158.588H142.344V172.63H140.032V139.165H147.666ZM147.387 156.364C148.804 156.399 150.214 156.149 151.534 155.63C152.531 155.229 153.419 154.598 154.125 153.787C154.735 153.062 155.192 152.22 155.468 151.314C155.726 150.466 155.86 149.586 155.865 148.7C155.874 147.732 155.689 146.771 155.322 145.874C154.959 145.004 154.419 144.219 153.736 143.569C153.017 142.877 152.169 142.334 151.24 141.969C150.204 141.567 149.1 141.368 147.988 141.382H142.336V156.364H147.387ZM152.195 157.399L161.473 172.623H158.786L149.457 157.45L152.195 157.399Z" fill="#1D1D1B"/>
<path d="M175.985 172.623L190.122 137.705H190.313L204.443 172.623H201.852L189.557 141.382L191.172 140.487L178.312 172.623H175.985ZM182.819 159.41H197.661L198.322 161.576H182.254L182.819 159.41Z" fill="#1D1D1B"/>
<path d="M237.945 142.938C236.789 142.401 235.591 141.959 234.363 141.617C232.987 141.211 231.561 141.003 230.127 141C228.227 140.902 226.355 141.488 224.85 142.652C224.22 143.142 223.713 143.772 223.369 144.492C223.025 145.211 222.853 146.001 222.868 146.799C222.827 147.95 223.232 149.073 223.998 149.933C224.83 150.824 225.827 151.545 226.934 152.055C228.153 152.635 229.459 153.193 230.839 153.728C231.94 154.13 233.032 154.585 234.113 155.094C235.166 155.579 236.152 156.195 237.049 156.929C237.932 157.663 238.646 158.579 239.141 159.615C239.697 160.858 239.963 162.211 239.919 163.572C239.952 165.305 239.494 167.013 238.598 168.497C237.718 169.934 236.444 171.088 234.928 171.822C233.222 172.637 231.349 173.039 229.459 172.997C227.932 173.021 226.409 172.825 224.938 172.417C223.697 172.049 222.497 171.557 221.356 170.949C220.335 170.398 219.528 169.936 218.926 169.554L220.012 167.675C221.763 168.909 223.705 169.846 225.76 170.45C226.89 170.795 228.065 170.971 229.246 170.971C230.598 170.972 231.937 170.7 233.181 170.171C234.43 169.655 235.519 168.816 236.337 167.741C237.207 166.549 237.647 165.098 237.585 163.623C237.652 162.23 237.237 160.856 236.411 159.733C235.591 158.716 234.562 157.887 233.394 157.303C232.124 156.661 230.818 156.095 229.481 155.608C228.417 155.204 227.345 154.771 226.281 154.316C225.241 153.883 224.255 153.329 223.345 152.664C222.485 152.047 221.769 151.25 221.246 150.33C220.7 149.319 220.432 148.182 220.467 147.034C220.436 145.544 220.864 144.081 221.693 142.843C222.531 141.628 223.679 140.659 225.018 140.039C226.515 139.341 228.146 138.98 229.797 138.982C231.411 138.985 233.019 139.19 234.583 139.591C236.044 139.943 237.458 140.465 238.796 141.147L237.945 142.938Z" fill="#1D1D1B"/>
</svg>
