<svg width="62" height="80" viewBox="0 0 62 80" fill="none" xmlns="http://www.w3.org/2000/svg">
<path d="M31.3223 79.8142C31.2905 79.8141 31.2592 79.8058 31.2315 79.7902C31.2037 79.7746 31.1804 79.7522 31.1638 79.7251L14.7184 53.0419C14.6996 53.0123 14.6896 52.9779 14.6896 52.9428C14.6896 52.9077 14.6996 52.8733 14.7184 52.8437L0.24851 27.0003C0.240821 26.9913 0.233785 26.9818 0.227455 26.9718C0.220413 26.9587 0.214608 26.945 0.210115 26.9309C0.194256 26.9032 0.185913 26.8718 0.185913 26.8399C0.185913 26.8079 0.194256 26.7766 0.210115 26.7488C0.227007 26.7206 0.250893 26.6971 0.279474 26.6807L15.3154 0.533823C15.3094 0.493061 15.3177 0.451486 15.3389 0.416161C15.3598 0.379082 15.3932 0.350573 15.4331 0.335656C15.4503 0.315407 15.4718 0.299158 15.4959 0.288036C15.5201 0.276914 15.5464 0.271187 15.573 0.271251C15.6194 0.272044 15.6638 0.29067 15.6969 0.32327H45.5965L45.6201 0.28116C45.6359 0.252799 45.6588 0.229071 45.6866 0.212338C45.7144 0.195606 45.7462 0.186453 45.7786 0.185792C45.8105 0.185698 45.8418 0.193863 45.8696 0.209491C45.8974 0.225119 45.9207 0.247677 45.9371 0.274967L45.9669 0.32327C45.9994 0.323123 46.0314 0.33151 46.0596 0.347594C46.0879 0.363677 46.1114 0.386893 46.1279 0.414922C46.1434 0.442982 46.1515 0.474516 46.1515 0.506575C46.1515 0.538633 46.1434 0.570167 46.1279 0.598227L61.4524 25.8534H61.5527C61.5847 25.8532 61.6162 25.8613 61.6441 25.8768C61.672 25.8924 61.6955 25.9149 61.7122 25.9422C61.7289 25.9695 61.7382 26.0006 61.7394 26.0325C61.7405 26.0645 61.7334 26.0962 61.7187 26.1246L61.6704 26.2175L61.7434 26.3414C61.7593 26.3695 61.7676 26.4013 61.7676 26.4336C61.7676 26.4659 61.7593 26.4977 61.7434 26.5259C61.7282 26.5543 61.7058 26.5782 61.6784 26.5951C61.651 26.6121 61.6196 26.6215 61.5874 26.6225H61.4635L47.8767 52.9626C47.886 52.9888 47.8895 53.0167 47.8867 53.0443C47.8839 53.0719 47.875 53.0986 47.8606 53.1224L31.4809 79.7251C31.4642 79.7522 31.4409 79.7746 31.4132 79.7902C31.3854 79.8058 31.3542 79.8141 31.3223 79.8142ZM25.5879 36.6609L36.7694 36.5705L41.7521 26.9098L36.1787 17.7199H25.495L20.1692 26.9866L25.5879 36.6609Z" fill="#D35458"/>
<path d="M45.7823 0.371563L45.8653 0.509041H45.973L45.9223 0.601932L46.2579 1.15556L61.1204 25.6552L61.3558 26.0441L61.5576 26.0354L61.4623 26.22L61.5861 26.4293L61.3483 26.438L61.1353 26.8504L48.0067 52.3161L47.6699 52.9688L47.707 53.0245L47.5287 53.3143L31.7744 78.8952L31.3223 79.6309L30.869 78.8952L15.0541 53.2314L14.8769 52.9453L14.9413 52.8462L14.8237 52.6369L0.820707 27.6393L0.392171 26.8764H0.382263V26.8677L0.372355 26.8392H0.403318L0.834331 26.0899L15.111 1.25217L15.516 0.547436L15.4937 0.509041H15.5383L15.568 0.457023L15.599 0.509041H45.703L45.7823 0.371563ZM25.4801 36.8417H25.6708L36.57 36.7525H36.8574L36.8698 36.7711L36.9441 36.6262L41.8177 27.1736L41.9589 26.8999L41.9515 26.8863L36.4363 17.7929L36.2901 17.5254H25.3909L25.3179 17.6492L20.0132 26.8764L19.9265 27.0263H19.9797L20.1296 27.2963L25.3315 36.5742L25.4838 36.8454L25.4801 36.8417ZM45.7823 0H45.7749C45.7208 0.00108604 45.6677 0.01395 45.6191 0.0376945C45.5706 0.061439 45.5278 0.0954922 45.4937 0.137478H15.7687C15.7113 0.103447 15.6459 0.0854791 15.5792 0.0854595C15.4877 0.085666 15.3995 0.119624 15.3315 0.180827C15.2754 0.210549 15.2278 0.254161 15.1933 0.307501C15.1588 0.36084 15.1386 0.422127 15.1346 0.485509L14.8001 1.06762L0.51231 25.9054L0.140747 26.5482C0.104743 26.5765 0.0744744 26.6113 0.0515718 26.651C0.0241507 26.6974 0.00717662 26.7493 0.00182949 26.803C-0.00351765 26.8567 0.00289038 26.9109 0.0206082 26.9619C0.0287054 26.9961 0.041633 27.0291 0.059003 27.0597C0.0716004 27.0819 0.086549 27.1026 0.103591 27.1216L0.496209 27.8214L14.4992 52.8189L14.5178 52.8499C14.5048 52.8985 14.5018 52.9493 14.5091 52.9991C14.5163 53.0489 14.5336 53.0968 14.5599 53.1397L14.737 53.4271L30.5532 79.0884L31.0053 79.8229C31.0385 79.8771 31.0852 79.9218 31.1407 79.9528C31.1962 79.9838 31.2587 80.0001 31.3223 80C31.3857 79.9999 31.448 79.9835 31.5033 79.9525C31.5585 79.9215 31.605 79.8769 31.6381 79.8229L32.0915 79.0884L47.8395 53.5051L48.0179 53.2153C48.0604 53.1468 48.0795 53.0664 48.0724 52.9861L48.3312 52.4833L61.4598 27.0176L61.5725 26.7971H61.5936C61.6582 26.7948 61.7212 26.7756 61.7762 26.7415C61.8312 26.7074 61.8763 26.6595 61.9071 26.6025C61.9379 26.5456 61.9533 26.4816 61.9517 26.4169C61.9502 26.3522 61.9317 26.289 61.8982 26.2336L61.8797 26.2039C61.9076 26.1512 61.9221 26.0925 61.9218 26.0329C61.9218 25.9344 61.8826 25.8399 61.8129 25.7702C61.7433 25.7005 61.6488 25.6614 61.5502 25.6614L61.4264 25.4595L46.57 0.963587L46.3347 0.573446C46.3505 0.484237 46.3332 0.392328 46.286 0.315006C46.2387 0.237684 46.1649 0.180276 46.0783 0.153579C46.0444 0.106687 45.9999 0.0683803 45.9485 0.0417156C45.8971 0.0150508 45.8402 0.000765735 45.7823 0V0ZM25.6027 17.897H36.0746L36.1266 17.9812L41.5403 26.9086L41.492 27.0002L36.6617 36.3797H36.5775L25.703 36.4689L25.6585 36.3884L20.4566 27.1105L20.3835 26.9792L25.6052 17.897H25.6027Z" fill="#D35458"/>
</svg>
