<svg id="Layer_1" data-name="Layer 1" xmlns="http://www.w3.org/2000/svg" viewBox="0 0 42.66 30.54"><defs><style>.cls-1{fill:#1a237e;}</style></defs><path class="cls-1" d="M44.09,18.93c-.31-.39-.63-.75-1-1.11,0-.06-.12-.11-.17-.17-.3-.3-.61-.59-.94-.87l-.07-.07a19.5,19.5,0,0,0-1.79-1.35,1.3,1.3,0,0,0,.1-.52,1.37,1.37,0,0,0-1.43-1.33h0v-1.1a1.39,1.39,0,0,0-.73-1.21l-1.32-.73c-.22-.08-1.32-.44-1.89.11l-1.78,1.71L31.9,12a32.16,32.16,0,0,0-7-.8,31.15,31.15,0,0,0-8.75,1.19l-1.87-1.79c-.57-.55-1.67-.19-2-.08L11,11.2a1.39,1.39,0,0,0-.73,1.21v1.1h-.06a1.36,1.36,0,0,0-1.39,1.33,1.38,1.38,0,0,0,.27.81A17.16,17.16,0,0,0,6.47,17.9c-.3.33-.6.67-.87,1A11,11,0,0,0,3.5,25.6a11.17,11.17,0,0,0,1.88,6.84,17.43,17.43,0,0,0,5.45,4.8,29.31,29.31,0,0,0,14,3.58A32.72,32.72,0,0,0,32.09,40a25.49,25.49,0,0,0,6.78-2.7,17.61,17.61,0,0,0,5.45-4.82,11.18,11.18,0,0,0,1.84-6.84A11,11,0,0,0,44.09,18.93ZM41.69,18c.23.23.44.46.66.7s.19.21.29.32a12.27,12.27,0,0,1,.82,1.08,11,11,0,0,1,2,5.24c-2.27,0-8.44.11-13,2.34a18.34,18.34,0,0,0,.45-6.06,7.93,7.93,0,0,1,.11-1.73,4.76,4.76,0,0,1,1.06-2h.72a3.52,3.52,0,0,0,2-.64,4.39,4.39,0,0,1,2.59-1,1.91,1.91,0,0,0,.21,0c.26.19.53.38.79.59l.22.18c.28.23.54.46.8.7Zm-16.8-6.14a31.32,31.32,0,0,1,7,.87l.62.18a8.7,8.7,0,0,0-1.25,1.66,90.14,90.14,0,0,0-6.12,13.07c-.07.21-.16.43-.25.66s-.23.57-.34.87q-.15-.45-.33-.87c-.09-.23-.18-.45-.25-.66a89.61,89.61,0,0,0-6.12-13.07,8.11,8.11,0,0,0-1.08-1.46A30.4,30.4,0,0,1,24.89,11.86ZM6.33,20.1q.38-.54.81-1.05l.29-.33c.21-.22.41-.45.63-.66l.35-.33c.23-.22.46-.43.7-.63l.3-.24c.25-.2.5-.38.75-.56a4.84,4.84,0,0,1,2.26.92,3.52,3.52,0,0,0,2,.64h.73a4.86,4.86,0,0,1,1.05,2,7.93,7.93,0,0,1,.11,1.73,18.34,18.34,0,0,0,.45,6.06c-4.19-2-9.73-2.33-12.42-2.34A11.09,11.09,0,0,1,6.33,20.1Zm.8,13c-.19-.22-.4-.43-.57-.67a10.66,10.66,0,0,1-2.24-6.1v0c2.88,0,9.23.35,13.31,2.95a.49.49,0,0,0,.64-.11.51.51,0,0,0,0-.66S17,27.1,17.34,21.68a8.75,8.75,0,0,0-.12-2A5.88,5.88,0,0,0,15.75,17a.53.53,0,0,0-.36-.15h-.94A2.52,2.52,0,0,1,13,16.4a5.67,5.67,0,0,0-3.18-1.14.34.34,0,0,1-.28-.12.47.47,0,0,1-.15-.34.44.44,0,0,1,.39-.44l.57.06a.53.53,0,0,0,.3-.09l.39.39a.52.52,0,0,0,.35.14l.16,0,1.21-.4L14,15.72a.52.52,0,0,0,.71,0,.51.51,0,0,0,0-.71L13.6,13.86l.15-.14a.52.52,0,0,0,0-.71l-1-1A.5.5,0,0,0,12,12a.5.5,0,0,0-.15.35.51.51,0,0,0,.15.36l.65.64-.07.07-1.09.36-.64-.63v-1a.52.52,0,0,1,.25-.43L12.36,11a1.6,1.6,0,0,1,.89-.12l2.55,2.56A7.13,7.13,0,0,1,17,15.06a88,88,0,0,1,6,12.92q.12.33.27.69a5.18,5.18,0,0,1,.58,2.58,2.49,2.49,0,0,1-2.53,1.61c-.07,0-7.12.14-13.42,0A1.79,1.79,0,0,0,7.13,33.13Zm31,3.65a24.14,24.14,0,0,1-6.38,2.42,29.62,29.62,0,0,1-6.84.81A26.71,26.71,0,0,1,11.66,36.8a17.52,17.52,0,0,1-3.83-2.89l.11,0c6.32.13,13.39,0,13.45,0a3.66,3.66,0,0,0,3.2-1.67,3.62,3.62,0,0,0,3.18,1.67c.07,0,7.14.14,13.46,0a1.56,1.56,0,0,1,.48.25A17.47,17.47,0,0,1,38.11,36.78Zm5.11-4.32a11.7,11.7,0,0,1-.8.94,2.22,2.22,0,0,0-1.19-.53h0c-6.3.13-13.35,0-13.43,0a2.48,2.48,0,0,1-2.52-1.61,5.18,5.18,0,0,1,.58-2.58q.15-.36.27-.69a89,89,0,0,1,6-12.92,7.13,7.13,0,0,1,1.21-1.58l2.55-2.55a1.42,1.42,0,0,1,.81.07l1.3.75a.52.52,0,0,1,.25.43v1l-.64.63-1.09-.36-.07-.07.65-.64a.51.51,0,0,0,.15-.36.5.5,0,0,0-.15-.35.5.5,0,0,0-.71,0l-1,1a.52.52,0,0,0,0,.71l.15.14L34.42,15a.51.51,0,0,0,0,.71.54.54,0,0,0,.36.14.52.52,0,0,0,.35-.14l1.28-1.28,1.21.4.16,0a.5.5,0,0,0,.35-.14l.39-.39a.54.54,0,0,0,.31.09l.51-.06a.44.44,0,0,1,.44.44.44.44,0,0,1-.43.46,5.76,5.76,0,0,0-3.18,1.14,2.5,2.5,0,0,1-1.45.46h-.94a.53.53,0,0,0-.36.15A5.79,5.79,0,0,0,32,19.72a8.77,8.77,0,0,0-.13,2c.3,5.42-.9,6.83-.91,6.83a.5.5,0,0,0,.63.77c4.4-2.8,11.57-3,13.92-2.94v0A10.74,10.74,0,0,1,43.22,32.46Z" transform="translate(-3.5 -10.28)"/></svg>