<?xml version="1.0" encoding="utf-8"?>
<!-- Generator: Adobe Illustrator 25.3.0, SVG Export Plug-In . SVG Version: 6.00 Build 0)  -->
<svg version="1.1" id="Capa_1" xmlns="http://www.w3.org/2000/svg" xmlns:xlink="http://www.w3.org/1999/xlink" x="0px" y="0px"
	 viewBox="0 0 500 500" style="enable-background:new 0 0 500 500;" xml:space="preserve">
<style type="text/css">
	.st0{fill:#6368AE;}
</style>
<path class="st0" d="M253.72,93.92C123.43,93.92,17.44,163.94,17.44,250s106,156.08,236.28,156.08S490,336.06,490,250
	S384,93.92,253.72,93.92z M429.92,335.14c-3.44,3.01-6.32,5.29-9.07,7.19c-4.05,2.79-8.31,5.49-12.48,8.13l-2.8,1.77
	c-2.45,1.56-5.36,3.37-8.29,5.01c-1.48,0.82-3.08,1.58-4.72,2.36c-0.77,0.36-1.53,0.72-2.29,1.1c-1.12,0.55-2.24,1.11-3.47,1.73
	c-2.28,1.15-4.65,2.33-7,3.4c-1.85,0.84-3.85,1.62-5.64,2.31l-0.49,0.19c-0.7,0.27-1.39,0.54-2.1,0.82l-1.11,0.45
	c-0.78,0.32-1.56,0.64-2.35,0.92c-1.18,0.42-2.38,0.81-3.58,1.2l-1,0.3c-0.34,0.05-0.92,0.13-1.48,0.53c-2.27,1.59-4.97,2.27-7.84,3
	c-1.83,0.46-3.71,0.94-5.55,1.68c-2.9,1.17-6.14,1.87-9.28,2.54c-1.56,0.34-3.13,0.67-4.67,1.07c-0.8,0.2-1.6,0.44-2.49,0.71
	c-0.86,0.26-1.83,0.56-2.77,0.78c-1.19,0.28-2.39,0.5-3.68,0.73c-0.95,0.17-1.91,0.35-2.85,0.55c-1.25,0.26-2.49,0.54-3.73,0.81
	l-0.47,0.1c-1.59,0.36-3.17,0.71-4.76,1.03c-1.96,0.4-3.96,0.69-5.84,0.95c-1.85,0.26-3.7,0.5-5.56,0.73
	c-1.3,0.17-2.6,0.33-3.89,0.51c-1.09,0.15-2.18,0.3-3.33,0.47l-0.48,0.07c-2.44,0.35-4.97,0.72-7.46,0.97
	c-4.32,0.44-8.77,0.79-13.22,1.04c-5.11,0.28-10.55,0.51-14.91,0.69l-5.96,0.26c-2.19-0.09-4.36-0.17-6.58-0.25
	c-4.74-0.17-9.65-0.34-14.47-0.66c-6.66-0.44-13.71-1.06-22.19-1.95c-4.82-0.51-9.66-1.29-13.76-1.99c-1.82-0.31-3.68-0.76-5.48-1.2
	c-1.01-0.25-2.02-0.49-3.04-0.72c-0.32-0.07-0.64-0.15-1-0.23c-1.19-0.28-2.41-0.58-3.72-0.66c-3.47-0.21-6.8-1.02-10.17-2.46
	c-0.63-0.27-1.24-0.32-1.78-0.37c-0.14-0.01-0.27-0.02-0.4-0.05l-1.52-0.37c-1.74-0.43-3.53-0.87-5.24-1.38
	c-1.42-0.43-2.83-0.9-4.32-1.4c-2.59-0.86-5.28-1.75-8.03-2.37c-2.22-0.5-4.3-1.22-6.38-2.22c-0.92-0.44-1.87-0.64-2.71-0.82
	c-0.57-0.12-1.11-0.24-1.55-0.41c-1.78-0.69-3.55-1.46-5.27-2.2l-0.14-0.06c-0.89-0.39-1.78-0.77-2.68-1.15
	c-1.36-0.57-2.72-1.14-4.09-1.71c-2.77-1.15-5.54-2.3-8.29-3.5c-1.72-0.76-3.38-1.64-5.33-2.74c-4.38-2.46-9.05-5.09-13.63-7.78
	c-3.58-2.11-6.83-4.11-9.92-6.13c-1.7-1.11-3.4-2.33-4.89-3.42l-0.15-0.11c-0.79-0.57-1.58-1.14-2.38-1.71
	c-0.61-0.43-1.22-0.85-1.84-1.27l-0.23-0.16c-1.14-0.78-2.43-1.66-3.6-2.55c-0.52-0.39-1.01-0.9-1.54-1.44
	c-0.34-0.35-0.69-0.7-1.04-1.03c-1.47-1.37-5.1-4.75-5.1-4.75c-2.06-1.92-4.12-3.83-6.21-5.79c-1.49-1.4-3.03-2.85-4.4-4.36
	c-0.64-0.71-1.21-1.53-1.82-2.39c-0.27-0.39-0.55-0.78-0.88-1.25c-0.12-0.21-0.32-0.57-0.67-0.91c-5.46-5.21-9.37-11.85-13.14-18.27
	l-0.42-0.72c-1.4-2.37-3.16-5.52-4.4-8.81c-0.43-1.14-0.87-2.29-1.32-3.44c-1.86-4.81-3.79-9.78-4.76-14.77
	c-1.53-7.78-3.11-15.83-2.28-23.84c0.03-0.29,0.07-0.58,0.13-0.93c0.06-0.38,0.12-0.75,0.16-1.14c0.03-0.28,0.07-0.67,0.11-1.01
	c0.27,0.03,0.57,0.07,0.85,0.12c1.39,0.21,2.84,0.58,4.25,0.95c1.68,0.43,3.42,0.88,5.24,1.11c2.52,0.31,5.08,1.08,7.6,1.84
	c3.31,0.99,6.73,2.02,10.45,2.14c0.71,0.02,1.6,0.45,2.56,0.91c0.66,0.31,1.4,0.67,2.19,0.93c1.01,0.34,2.01,0.52,3,0.69l0.8,0.15
	c0.38,0.07,0.76,0.12,1.19,0.17c0.48,0.06,0.94,0.11,1.3,0.23c2.42,0.78,4.84,1.58,7.26,2.38l0.92,0.31
	c1.99,0.66,3.97,1.32,5.97,1.97c2.79,0.91,5.58,1.79,8.37,2.67l3.47,1.1l0.3,0.08c1.34,0.56,2.69,1.12,4.04,1.68
	c3.21,1.33,6.54,2.7,9.74,4.16c2.48,1.14,4.93,2.58,7.3,3.97l0.7,0.41c1.77,1.04,3.48,2.26,5.03,3.32c0,0.02,0.04,0.18-0.11,0.79
	c-1.19,5-1.24,9.42-0.17,13.92c0.91,3.85,2.89,7.18,6.22,10.47c4.99,4.94,10.67,7.45,16.87,7.45c0.86,0,1.74-0.05,2.63-0.15
	c0.15-0.02,0.29-0.03,0.41-0.03c0.03,0,0.05,0,0.07,0c0.03,0.08,0.08,0.21,0.15,0.45c2.07,6.93,6.24,12.4,12.4,16.24
	c4.19,2.62,8.72,3.95,13.46,3.95c0.86,0,1.72-0.04,2.57-0.13c0.24-0.02,0.49-0.03,0.72-0.03c0,0,1.59,0.01,1.59,0.01
	c0.02,0.03,0.05,0.08,0.1,0.21c1.86,4.5,5,8.04,8.84,9.97c0.77,0.39,1.53,0.83,2.32,1.28c2.74,1.58,5.58,3.21,9.21,3.21
	c0.5,0,1.01-0.03,1.52-0.1c1.33-0.17,2.75-0.18,4.13-0.18c1,0,2-0.01,3-0.06l0.25-0.01c0.54,0,0.77,0,1.31,1.01
	c1.35,2.5,3.19,4.9,5.32,6.92c1.55,1.47,3.31,2.63,5.02,3.76c0.68,0.45,1.36,0.9,2.04,1.38c0.16,0.12,0.53,0.4,1.07,0.51
	c1.26,0.24,2.58,0.7,3.87,1.13c2.24,0.76,4.56,1.55,7.11,1.55c0.75,0,1.49-0.07,2.2-0.21c6.52-1.27,12.3-2.69,17.04-7.29
	c0.08-0.07,0.46-0.23,0.88-0.23c0,0,0,0,0.01,0c0.91,0.1,1.93,0.42,2.85,0.91c6.49,3.43,12.65,5.1,18.82,5.1
	c1.82,0,3.66-0.15,5.47-0.45c7.11-1.16,12.05-3.78,15.51-8.25c0.12-0.05,0.35-0.11,0.58-0.11l0.54,0c1.11,0,2.22,0.04,3.33,0.08
	c1.15,0.04,2.31,0.08,3.46,0.08c1.68,0,3.06-0.08,4.35-0.26c2.37-0.32,4.95-1.47,7.9-3.52c0.46-0.32,0.94-0.63,1.45-0.96
	c2.14-1.39,4.35-2.82,5.8-5.38c0.3-0.53,0.61-1.05,0.93-1.58c0.95-1.59,1.93-3.23,2.61-5.06c0.16-0.41,0.23-0.52,0.22-0.52
	c0.04-0.01,0.19-0.01,0.3-0.01c2.73-0.02,5.45-0.05,8.16-0.12l0.4-0.01c0.81-0.01,1.93-0.01,2.92-0.55c0.93-0.5,1.91-0.96,2.89-1.42
	c2.76-1.3,5.62-2.64,7.95-5.13c0.83-0.89,1.69-1.76,2.54-2.63c0.97-0.98,1.94-1.97,2.87-2.98c0.63-0.67,1.12-1.61,1.35-2.58
	c0.6-2.53,1.24-5.24,1.76-7.97c1.11,0.14,2.22,0.22,3.31,0.22c5.54,0,10.75-1.79,15.94-5.47c5.16-3.66,8.07-8.02,8.89-13.32
	c0.09-0.59,0.23-1.19,0.4-1.89c0.35-1.51,0.72-3.07,0.55-4.73c-0.28-2.79-1.18-5.44-2.04-7.99l-0.1-0.3
	c-0.08-0.25-0.18-0.55-0.25-0.82c0.17-0.05,0.42-0.1,0.77-0.16l0.22-0.03c0.31-0.04,0.75-0.09,1.21-0.27
	c1.59-0.63,3.17-1.27,4.75-1.92l0.9-0.36c1.9-0.77,3.8-1.54,5.69-2.3c1.01-0.4,2.1-0.79,3.45-1.24c0.13-0.05,0.28-0.07,0.51-0.11
	c0.39-0.07,0.8-0.14,1.23-0.3c1.23-0.45,2.44-0.91,3.78-1.41c1.86-0.7,3.71-1.4,5.58-2.06c2.12-0.74,4.25-1.44,6.39-2.13
	c0,0,2.43-0.79,3.56-1.17c1.24-0.41,2.48-0.87,3.72-1.34c2.55-0.95,5.19-1.94,7.78-2.39c2.21-0.38,4.24-1.13,6.21-1.86
	c2.58-0.95,5.01-1.84,7.59-1.84l0.3,0c2.12,0,4.09-0.98,5.07-1.55c1.23-0.72,2.67-0.92,4.22-1.14c0.72-0.1,1.44-0.2,2.16-0.35
	c1.26-0.26,2.45-0.63,3.77-1.05c0.61-0.19,1.21-0.38,1.82-0.56c1.07-0.3,2.15-0.6,3.37-0.93l0.25-0.07
	c1.22-0.33,2.44-0.67,3.65-1.01c0.33-0.09,0.54-0.11,0.62-0.18c0.01,0.01,0.12,0.17,0.15,0.87c0.29,6.18-0.17,12.35-1.36,18.34
	c-0.2,0.99-0.39,1.99-0.58,2.99l-0.05,0.29c-0.64,3.4-1.31,6.92-2.31,10.21c-0.84,2.78-2.06,5.54-3.23,8.21
	c-0.55,1.26-1.11,2.53-1.63,3.8c-0.17,0.42-0.33,0.84-0.49,1.29c-0.24,0.68-0.48,1.32-0.77,1.87l-0.64,1.19
	c-1.21,2.27-2.47,4.62-3.88,6.78c-2.47,3.78-5.28,8.06-8.32,11.89c-3.37,4.24-6.94,8.3-10.63,12.05
	C438.32,327.74,434.18,331.41,429.92,335.14z M251.86,329.29c0.03,1.01,0.05,1.95-0.11,2.77c-0.99,4.72-3.99,8.4-8.66,10.65
	c-2.83,1.36-4.98,1.96-6.99,1.96c-1.42,0-2.74-0.31-4.04-0.96c-0.73-0.36-1.46-0.51-2.1-0.63c-0.4-0.08-0.81-0.16-1.06-0.28
	c-3.29-1.6-5.65-3.91-7-6.86c-0.83-1.82-1.63-3.79-2.52-6.23c-0.04-0.12-0.06-0.45-0.07-0.7c-0.02-0.41-0.05-0.92-0.2-1.54
	c-0.24-0.98-0.61-2.47-1.94-3.11c-0.42-0.2-0.89-0.3-1.4-0.3c-1.19,0-2.2,0.52-2.58,0.74c-0.65,0.38-1.2,0.83-1.74,1.26
	c-0.49,0.4-0.95,0.77-1.4,1c-0.31,0.16-0.62,0.33-0.94,0.5c-1.37,0.74-2.78,1.51-4.03,1.66c-0.17,0.02-0.35,0.03-0.52,0.03
	c-1.24,0-2.7-0.46-4.11-0.89l-0.38-0.12c-0.86-0.27-1.74-0.76-2.66-1.28c-0.39-0.22-0.78-0.44-1.17-0.64
	c-4.24-2.22-6.24-5.71-6.1-10.66c0.02-0.84-0.15-1.59-0.33-2.33c-0.05-0.21-0.1-0.43-0.14-0.64l-0.37-2.06l-2.06,0.42
	c-0.24,0.05-0.5,0.07-0.82,0.1c-0.95,0.09-2.14,0.21-3.12,1.01c-1.97,1.61-4.24,2.05-7.05,2.21c-0.26,0.01-0.52,0.02-0.77,0.02
	c-4.14,0-7.54-1.9-11.37-6.34c-2.9-3.36-3.87-7.72-3.09-13.65c0.09-0.34,0.25-0.99,0.01-1.69l-0.11-0.37
	c-0.24-0.8-0.57-1.9-1.59-2.57c-0.41-0.27-0.89-0.41-1.42-0.41c-1,0-2.23,0.51-2.93,1.22c-1.61,1.62-3.53,2.59-5.87,2.98
	c-0.88,0.14-1.74,0.21-2.55,0.21c-3.83,0-7-1.62-9.43-4.83c-2.69-3.55-3.13-7.76-1.3-12.53c1.19-3.09,3.53-5.18,7.18-6.41
	c0.47-0.16,0.95-0.35,1.42-0.55c0.78-0.32,1.51-0.63,2.12-0.67l0.2-0.01c3.06,0,9.8,3.5,10.82,6.81c0.17,0.56,0.38,1.11,0.58,1.66
	c0.51,1.35,0.91,2.41,0.73,3.54c-0.12,0.79,0.11,1.45,0.28,1.9c0.03,0.07,0.05,0.13,0.07,0.2l0.2,0.78l3.74,2.44l0.91-2.38
	c0.07-0.18,0.13-0.36,0.22-0.62c0.07-0.21,0.14-0.43,0.25-0.63c2.33-4.35,6.41-7.4,12.1-9.08c1.37-0.4,2.67-0.61,3.87-0.61
	c1.49,0,2.85,0.32,4.05,0.95c0.76,0.4,1.52,0.69,2.32,0.99c0.43,0.16,0.86,0.32,1.27,0.51c3.53,1.59,5.48,4.63,6.13,9.57
	c0.39,2.95,1.61,4.45,3.62,4.45c1.04,0,2.13-0.48,3.45-1.51c3.14-2.46,5.91-3.61,8.71-3.61c0.22,0,0.45,0.01,0.67,0.02
	c6.37,0.41,10.45,2.77,12.49,7.22c1.52,3.31,2.83,6.17,1.49,9.44c-0.8,1.96-1.18,3.97-1.58,6.14c-0.12,0.65-0.24,1.3-0.38,1.94
	c-0.32,1.51-0.11,2.74,0.62,3.65c0.69,0.85,1.7,1.28,3,1.28c0.27,0,0.56-0.02,0.88-0.06c1.37-0.18,2.66-0.57,3.74-0.92
	c1.94-0.64,3.84-0.96,5.65-0.96c4.02,0,7.66,1.59,10.83,4.71c2.35,2.32,4.98,5.52,4.48,9.81
	C251.8,327.4,251.83,328.39,251.86,329.29z M470.27,218.05c0.68,2.37,1.39,4.73,2.11,7.09l0.15,0.51c0.47,1.56,0.94,3.12,1.4,4.68
	c0.06,0.21,0.11,0.39,0.14,0.55c-0.17,0.04-0.41,0.1-0.75,0.15c-2.36,0.39-4.66,0.96-6.9,1.51l-1.25,0.31
	c-4.31,1.07-8.76,2.17-13.16,3.37c-1.31,0.36-2.59,0.81-3.91,1.28c-1.07,0.38-2.18,0.77-3.26,1.07c-0.92,0.26-1.92,0.44-2.9,0.63
	c-1.15,0.21-2.33,0.44-3.53,0.79c-2.52,0.75-5.1,1.61-7.71,2.48c-1.28,0.43-2.56,0.85-3.85,1.27c-1.74,0.56-3.48,1.11-5.25,1.66
	c-3.64,1.14-7.4,2.32-11.08,3.65c-4.25,1.54-8.48,3.26-12.59,4.93c-1.45,0.59-9.6,3.89-9.6,3.89c-2.99,1.22-6.37,2.59-9.77,3.87
	c-0.07-0.01-0.13-0.02-0.15-0.02c-0.01,0-0.01,0,0,0.01c-3.12-2.7-6.2-5.42-9.29-8.15l-0.19-0.17c-3-2.65-6.01-5.3-9.04-7.93
	c-2.25-1.95-4.59-3.89-6.66-5.61l-0.34-0.28c-1.75-1.45-3.5-2.9-5.23-4.38c-1.8-1.53-3.57-3.09-5.4-4.7l-0.22-0.2
	c-1.52-1.33-3.03-2.67-4.57-3.99c-2.16-1.86-4.33-3.7-6.51-5.54l-0.37-0.31c-1.85-1.57-3.69-3.13-5.53-4.71
	c-1.41-1.21-2.81-2.44-4.24-3.68c-2.04-1.78-4.07-3.56-6.15-5.3c-5.14-4.32-10.19-8.54-15.43-12.72
	c-5.49-4.38-9.77-7.65-13.87-10.59c-5.26-3.77-10.33-5.99-15.51-6.81c-2.39-0.38-4.54-0.56-6.56-0.56c-2.87,0-5.46,0.37-7.94,1.12
	c-0.53,0.16-1.09,0.32-1.62,0.42c-5.62,1.03-10.16,4.03-14.55,6.94l-0.12,0.08c-3,1.98-5.91,4.13-8.41,5.98
	c-1.53,1.13-3.03,2.3-4.53,3.47c-1.24,0.97-2.48,1.93-3.74,2.88c-1.13,0.85-2.25,1.72-3.43,2.62c-2.99,2.31-6.08,4.7-9.28,6.72
	c-2.62,1.66-5.48,3.22-8.63,3.47c-1.12,0.09-2.24,0.23-3.37,0.37c-1.36,0.17-2.76,0.35-4.1,0.41c-0.25,0.01-0.49,0.02-0.73,0.02
	c-3.66,0-7.37-1.2-11.67-3.77c-0.2-0.12-0.32-0.22-0.4-0.29c0.05-0.08,0.13-0.2,0.3-0.37c2.84-2.95,5.67-5.92,8.52-8.92
	c7.24-7.61,14.73-15.48,22.39-22.9c6.06-5.87,13.2-10.46,21.22-13.64c8.7-3.45,17.62-5.13,27.24-5.13c1.06,0,2.13,0.02,3.46,0.06
	c1.06-0.09,2.17-0.14,3.32-0.14c5.31,0,10.92,1.01,16.34,1.99l0.23,0.04c1.96,0.35,3.98,1.06,5.95,1.75
	c1.32,0.46,2.69,0.94,4.08,1.33c4.87,1.37,9.62,3.47,14.22,5.5c1.28,0.57,2.55,1.13,3.84,1.68c5.7,2.45,11.51,4.38,17.45,6.3
	c4.69,1.52,8.94,2.61,12.98,3.35c2.92,0.54,5.89,0.8,8.76,1.06c1.41,0.12,2.82,0.25,4.23,0.41c0.87,0.1,1.77,0.27,2.64,0.43
	l0.63,0.12c3.09,0.57,5.94,0.85,8.72,0.85c3.24,0,6.25-0.38,9.22-1.16c0.56-0.15,1.06-0.22,1.47-0.22l0.16,0
	c0.42,0.02,0.83,0.02,1.25,0.02c3.72,0,7.35-0.62,10.88-1.23c1.65-0.28,3.37-0.58,5.04-0.79c2.32-0.3,4.55-1.03,6.73-1.74
	c0.8-0.26,1.61-0.52,2.41-0.76c0.99-0.29,1.98-0.57,2.98-0.85c2.66-0.75,5.41-1.52,8.08-2.5c5.17-1.9,10.24-4.04,15-6.08
	c0.45-0.19,0.81-0.29,1.05-0.29c0.11,0,0.42,0,1.08,0.6c6.39,5.8,13.1,12.2,18.85,19.63c4.04,5.22,7.6,10.81,11.51,17.06
	C466.27,207.17,468.7,212.56,470.27,218.05z M283.98,108.98c1.19,0.14,2.42,0.28,3.71,0.28c0,0,0.9-0.02,1.16-0.02
	c3.88,0,7.88,0.76,11.75,1.5l0.15,0.03c0.96,0.18,1.92,0.37,2.89,0.54c2.15,0.38,4.38,0.78,6.78,0.78c3.2,0,6.2,0.96,9.38,1.98
	l0.91,0.29c1.07,0.34,2.24,0.55,3.4,0.61c3.63,0.18,7.08,1.2,10.29,2.23c3.3,1.06,6.69,1.88,9.96,2.68
	c1.38,0.34,2.76,0.68,4.14,1.03c0.18,0.05,0.37,0.07,0.6,0.09c4.4,1.57,8.8,3.15,13.21,4.74c0.15,0.05,0.3,0.12,0.52,0.23
	c0.31,0.14,0.62,0.28,0.94,0.39c1.02,0.35,2.04,0.7,3.17,1.08c2.11,0.71,4.3,1.45,6.42,2.24c0.2,0.07,0.5,0.3,0.82,0.53
	c0.57,0.42,1.28,0.94,2.2,1.18c3.34,0.87,6.52,2.49,9.6,4.06c1.95,1,3.97,2.02,6.07,2.89c1.7,0.7,3.39,1.72,5.02,2.71
	c0.76,0.46,1.53,0.93,2.31,1.37c0.11,0.07,0.22,0.15,0.38,0.27c0.41,0.3,0.97,0.72,1.72,0.91c1.94,0.52,3.59,1.74,5.34,3.02
	c0.77,0.57,1.54,1.13,2.34,1.65c2.43,1.57,4.84,3.22,7.16,4.82l3.37,2.29c0.05,0.03,0.11,0.06,0.17,0.1
	c-0.07,0.04-0.13,0.07-0.19,0.1c-1.18,0.64-2.57,1.11-3.91,1.58c-0.59,0.2-1.18,0.41-1.77,0.63c-1.01,0.38-2.03,0.72-3.2,1.11
	l-2.28,0.75c-1.26,0.41-2.52,0.82-3.78,1.26c-0.55,0.19-1.09,0.42-1.67,0.66c-0.71,0.3-1.38,0.58-2.03,0.75l-1.82,0.48
	c-3.87,1.02-7.86,2.08-11.81,2.88c-2.4,0.49-5.04,0.55-7.59,0.62c-1.59,0.04-3.18,0.05-4.77,0.05c-1.14,0-2.29-0.01-3.57-0.01
	c-1.2-0.01-2.4-0.01-3.59-0.01h-2.03l0,0.27l-3.56-0.13c-4.78-0.17-9.72-0.35-14.57-0.67c-1.09-0.07-2.26-0.47-3.51-0.89
	c-0.69-0.23-1.39-0.47-2.09-0.66c-1.42-0.39-4.59-1.23-4.59-1.23c-2.97-0.79-5.94-1.58-8.9-2.42c-0.63-0.18-1.3-0.51-2.01-0.86
	c-0.39-0.19-0.79-0.39-1.18-0.56c-0.21-0.1-0.43-0.2-0.68-0.33c-0.67-0.34-1.42-0.72-2.33-0.89c-2.74-0.52-5.2-1.81-7.81-3.17
	c-1.09-0.57-2.22-1.16-3.39-1.7c-2.57-1.19-5.29-2.13-7.95-3.06c-0.74-0.26-1.48-0.51-2.22-0.78c-0.6-0.21-1.19-0.27-1.67-0.31
	c-0.18-0.02-0.51-0.05-0.57-0.06c-3.64-2-7.53-2.67-11.29-3.31c-2.37-0.41-4.82-0.83-7.06-1.58c-1.86-0.63-3.78-0.73-5.64-0.84
	c0,0-2.36-0.14-3.31-0.2c-2.69-0.17-5.47-0.35-8.24-0.35c-0.73,0-1.45,0.01-2.18,0.04c-4.19,0.16-8.42,0.57-12.54,0.97
	c-1.56,0.15-3.12,0.3-4.68,0.44c-0.73,0.06-1.37,0.27-1.94,0.45l-0.16,0.05c-0.5,0.16-0.99,0.34-1.5,0.53
	c-0.85,0.32-1.65,0.61-2.39,0.72c-2.49,0.35-4.63,1.04-6.73,2.18c-0.79,0.43-1.75,0.71-2.78,1.01c-0.85,0.25-1.72,0.5-2.59,0.87
	c-5.79,2.44-11.28,5.76-16.79,10.16c-0.88,0.7-2.03,1.23-3.08,1.41c-2.32,0.4-4.74,0.72-7.08,1.03c-2.37,0.31-4.81,0.64-7.27,1.06
	c-1.54,0.26-2.98,0.79-4.38,1.3c-0.61,0.22-1.22,0.44-1.83,0.64c-0.76,0.24-1.55,0.46-2.36,0.65c-0.68,0.16-1.37,0.29-2.06,0.42
	c-1.59,0.3-3.22,0.6-4.8,1.28c-4.1,1.77-8.65,1.8-13.04,1.84c-0.75,0.01-1.5,0.01-2.25,0.03c-0.69,0.01-1.38,0.02-2.07,0.02
	c-3.89,0-7.96-0.2-12.09-0.6c-1.28-0.12-2.62-0.61-4.04-1.12c-0.79-0.28-1.57-0.57-2.36-0.8l-0.45-0.13
	c-0.94-0.28-1.92-0.58-3.01-0.65c-2.84-0.19-5.74-0.93-9.4-2.39c-1.39-0.56-2.82-0.83-4.2-1.09c-0.7-0.13-1.4-0.26-2.08-0.44
	c-2.6-0.66-5.13-1.37-7.27-1.97c-0.26-0.07-0.51-0.18-0.85-0.33c-0.4-0.17-0.79-0.34-1.2-0.46c-0.96-0.29-1.92-0.57-2.91-0.86
	c-1.39-0.4-2.78-0.81-4.15-1.25c-1.14-0.37-2.27-0.8-3.49-1.26c-0.76-0.29-1.51-0.57-2.27-0.84c-1.32-0.47-4.44-1.57-4.44-1.57
	c-1.39-0.49-2.79-0.98-4.18-1.48c3.85-2.45,7.92-5.03,12.05-7.56c1.99-1.22,4.12-2.41,6.33-3.54c6.31-3.22,11.62-5.89,17.01-8.49
	c0.84-0.41,1.8-0.7,2.81-1.01c0.78-0.24,1.59-0.49,2.42-0.82c1.62-0.64,3.23-1.31,4.94-2.02c2.13-0.89,4.33-1.8,6.51-2.63
	c1.02-0.39,2.03-0.79,3.05-1.19l0.13-0.05c3.49-1.37,7.1-2.79,10.71-3.64c4.42-1.04,8.66-2.29,12.58-3.5
	c2.18-0.67,4.54-1.32,7.4-2.05c1.28-0.32,2.52-0.62,3.69-0.68c3.68-0.18,7.07-1.23,10.36-2.26l1.41-0.44
	c0.54-0.17,1.24-0.2,1.99-0.24c0.61-0.03,1.23-0.06,1.83-0.15c4.51-0.67,9.02-1.38,13.52-2.08l1.07-0.17
	c0.38-0.06,0.77-0.14,1.16-0.23c0.44-0.1,0.86-0.19,1.22-0.22c3.01-0.21,6.02-0.42,9.2-0.65c8.11-0.58,16.49-1.18,24.73-1.61
	c2.41-0.13,4.96-0.19,7.57-0.19c9.06,0,18.02,0.73,28.69,1.84C283.14,108.89,283.96,108.98,283.98,108.98z M66.19,172.41
	c3.58-3.39,7.56-6.92,12.16-10.8c0.08-0.02,0.26-0.06,0.5-0.06c0.25,0,0.46,0.04,0.57,0.07c2.62,0.94,5.37,2.01,7.9,2.99
	c2.21,0.86,4.43,1.72,6.65,2.54c4.14,1.52,8.44,2.99,12.71,4.46l2.53,0.87c0.67,0.23,1.38,0.4,2.03,0.56
	c0.41,0.1,0.82,0.2,1.23,0.32c1.23,0.37,2.47,0.75,3.75,1.16c2.36,0.74,4.8,1.5,7.25,2.15c1.93,0.52,3.88,0.92,5.77,1.32
	c1.31,0.27,2.61,0.55,3.91,0.85c0.34,0.08,0.74,0.25,1.17,0.43c0.6,0.25,1.35,0.56,2.18,0.71c3.99,0.69,8.63,1.47,13.26,2.06
	c0.64,0.08,1.27,0.17,1.96,0.26c2.55,0.35,5.19,0.71,7.84,0.71c0.55,0,1.09-0.02,1.64-0.05c4.73-0.29,9.87-1,16.18-2.22
	c3.76-0.73,7.5-1.75,11.11-2.75c0,0,1.48-0.41,2.13-0.58c-3.57,3.82-7.15,7.63-10.73,11.43l-1.98,2.12
	c-1.81,1.94-3.67,3.96-5.62,5.84c-2.54,2.46-3.72,5.44-4.54,8.04c-1.07,3.38,0.99,6.33,2.09,7.92c2.22,3.18,5.07,5.37,8.46,6.5
	c0.77,0.26,1.59,0.65,2.42,1.04c1.18,0.56,2.39,1.14,3.75,1.48c2.29,0.56,4.61,0.78,6.86,0.99l1.33,0.13
	c0.56,0.06,1.13,0.07,1.7,0.07c0.43,0,0.86-0.01,1.38-0.02c0.37-0.01,0.74-0.02,1.09-0.02c0.41,0.01,0.81,0.01,1.22,0.01
	c3.81,0,8.26-0.28,12.44-2.4c4.12-2.09,7.62-4.16,10.69-6.35c2.48-1.77,4.85-3.65,7.15-5.48c2.18-1.73,4.43-3.53,6.72-5.17
	c4.08-2.92,9.49-6.7,15.16-10.02c4.48-2.62,8.74-3.89,13.05-3.89c0.52,0,1.05,0.02,1.58,0.06c3.3,0.24,6.39,1.09,9.48,2.59
	c6.41,3.12,11.97,7.76,17.36,12.24c1.31,1.09,2.62,2.18,3.95,3.25c6.01,4.87,11.97,9.9,17.01,14.18c4.46,3.79,8.89,7.63,13.31,11.46
	l4.8,4.16c5.21,4.5,10.41,9.01,15.6,13.52l5.39,4.67c3.53,3.07,7.06,6.14,10.61,9.19c3.3,2.84,6.7,5.71,10.1,8.52
	c4.37,3.62,5.69,10.59,2.72,14.33c-3.04,3.82-6.95,5.68-11.96,5.68c-4.32-0.01-7.24-2.62-10.07-5.15c-2.16-1.93-4.32-3.85-6.49-5.78
	l-0.47-0.42c-2.61-2.31-5.22-4.63-7.81-6.96c-2.62-2.35-5.23-4.71-7.84-7.07c0,0-4.47-4.04-6.47-5.84
	c-1.58-1.43-3.75-3.38-7.01-3.44c-1.84,0-3.32,0.76-4.03,2.09c-0.68,1.25-0.55,2.69,0.34,4.05c1.44,2.2,3.28,4.43,5.62,6.82
	c3.07,3.12,6.16,6.21,9.24,9.31l1.16,1.16c5.29,5.3,10.76,10.77,16.06,16.3c2.14,2.23,2.88,4.85,2.2,7.79
	c-0.81,3.49-2.84,6-6.78,8.4c-2.74,1.66-5.25,2.44-7.92,2.44c-0.68,0-1.38-0.05-2.08-0.16c-2.38-0.35-4.48-1.5-6.82-3.74
	c-3.37-3.23-6.71-6.51-10.04-9.78l-0.25-0.25c-2.73-2.68-5.46-5.37-8.22-8.02c-2.14-2.07-4.11-3.9-6.43-5.37
	c-0.93-0.58-2.14-0.88-3.6-0.88c-0.66,0-1.37,0.06-2.09,0.18c-1.26,0.2-2.23,0.98-2.67,2.12c-0.48,1.26-0.17,2.78,0.79,3.96
	c2.18,2.67,4.33,5.22,6.39,7.59c1.9,2.18,3.81,4.36,5.74,6.54l0.38,0.43c2.43,2.76,4.86,5.51,7.27,8.29
	c1.66,1.91,3.41,3.96,4.96,6.16c0.75,1.07,0.75,2.23,0,3.56c-2.61,4.66-6.51,6.93-11.93,6.93c-1.02,0-2.12-0.08-3.26-0.23
	c-0.79-0.11-1.86-0.68-2.67-1.42c-3.85-3.52-7.74-7.15-11.53-10.7l-0.29-0.27c-2.45-2.29-4.9-4.58-7.36-6.86
	c-1.25-1.16-2.67-2.48-4.4-3.39c-0.78-0.41-1.83-0.65-2.81-0.65c-0.65,0-1.59,0.11-2.4,0.61c-1.73,1.08-1.65,3.77-1.54,4.87
	c0.14,1.39,1.03,2.62,1.75,3.42c5.62,6.15,11.49,12.5,17.43,18.88c0.16,0.17,0.28,0.31,0.37,0.42c-0.09,0.09-0.2,0.2-0.35,0.33
	c-2.89,2.6-6.62,2.85-10.5,2.9l-0.18,0c-3.8,0-7.29-1.35-11.12-2.98c-0.52-0.22-1.06-0.43-1.65-0.66c-0.41-0.16-0.81-0.32-1.21-0.48
	c2.57-6.87,2.56-14.08-0.02-21.42c-1.2-3.4-3.44-6.6-7.06-10.06c-3.76-3.6-7.75-5.73-12.19-6.51c-2.22-0.39-4.41-0.71-6.53-0.94
	c0-0.02,0-0.03,0-0.05c-0.11-3.42-0.47-6.73-1.07-9.85c-0.75-3.85-2.61-7.24-5.54-10.07c-3.39-3.27-7.49-5.53-12.53-6.91
	c-2.46-0.67-4.9-1.01-7.24-1.01c-2.52,0-5.01,0.39-7.51,1.19c-2.73-5.1-7.15-7.82-11.12-9.81c-3.57-1.79-7.47-2.62-12.27-2.62
	c-2.17,0-4.37,0.18-6.05,0.33c-1.53,0.14-2.82,0.78-4.06,1.39l-0.49,0.24c-0.74,0.36-1.47,0.77-2.21,1.19
	c-0.66,0.38-1.3,0.74-1.87,1.02c-2.68-3.63-6.61-5.41-10.13-6.68c-3.07-1.11-5.51-1.6-7.94-1.6c-1.62,0-3.15,0.23-4.69,0.69
	c-3.38,1.02-6.65,2.51-10.01,4.54c-0.54,0.33-0.98,0.76-1.33,1.1c-0.01,0.01-0.03,0.03-0.04,0.04c-0.02-0.01-0.03-0.03-0.05-0.05
	c-0.37-0.34-0.83-0.76-1.41-1.07l-1.5-0.82c-3.49-1.91-7.09-3.88-10.78-5.72c-3.91-1.95-7.97-3.77-11.89-5.52l-0.56-0.25
	c-0.79-0.36-1.59-0.58-2.36-0.79c-0.46-0.13-0.93-0.26-1.37-0.43c-1.26-0.48-2.51-0.97-3.76-1.47c-1.38-0.55-2.76-1.1-4.15-1.61
	c-0.64-0.24-1.25-0.39-1.99-0.57c-0.41-0.1-0.82-0.2-1.23-0.34c-1.15-0.39-2.31-0.81-3.52-1.25c-1.94-0.7-3.95-1.42-6-2.05
	c-1.6-0.49-3.21-0.85-4.76-1.2c-1.07-0.24-2.15-0.48-3.21-0.76c-2.04-0.54-4.07-1.1-6.1-1.66c-2.69-0.75-5.38-1.49-8.08-2.18
	c-2.52-0.64-5.04-1.24-7.66-1.86c-2.7-0.64-5.4-1.28-8.08-1.97c-2.67-0.69-5.58-1.57-9.12-2.76c0.81-3.04,1.72-6.43,2.87-9.57
	c1.24-3.41,2.79-7.64,4.76-11.38c2.39-4.55,5.61-10.47,9.32-15.95C54.85,184.43,60.28,178,66.19,172.41z"/>
</svg>
