<svg width="71" height="70" viewBox="0 0 71 70" fill="none" xmlns="http://www.w3.org/2000/svg">
<path d="M52.7793 0H17.5927L0 30.4725L13.1875 52.6255L8.42435 70L24.3021 60.9451H52.776L70.372 30.4725L52.7793 0ZM50.2799 37.6576C49.8817 41.3744 45.9968 43.996 42.0923 43.1243C35.1102 41.5654 29.5889 37.8201 25.4563 31.9911C24.0032 29.9402 22.5107 27.9153 22.0024 25.3821C21.8824 24.793 21.8169 24.1919 21.7274 23.5973C21.7405 21.8845 22.2806 20.379 23.1959 18.9521C24.2934 17.2414 25.8218 16.6283 27.7451 17.0265C28.1673 17.1138 28.6681 17.5316 28.8536 17.9277C29.6783 19.6863 30.5391 21.4525 31.09 23.3039C31.2951 23.9934 30.8893 25.0669 30.4202 25.7192C28.8023 27.9699 28.7477 27.9273 30.3896 30.1823C32.5061 33.0897 35.2455 35.1898 38.5554 36.5884C39.4129 36.9517 40.0337 36.8513 40.5966 36.115C41.1595 35.3786 41.7836 34.7349 42.3061 33.9941C42.8647 33.1988 43.5062 33.1214 44.3255 33.5163C45.9619 34.2996 47.5983 35.0862 49.2555 35.8237C50.0933 36.1957 50.3781 36.739 50.2799 37.6576Z" fill="#00BB0D"/>
</svg>
